<mxfile host="Electron" modified="2024-04-15T19:41:55.811Z" agent="Mozilla/5.0 (Windows NT 10.0; Win64; x64) AppleWebKit/537.36 (KHTML, like Gecko) draw.io/24.2.5 Chrome/120.0.6099.109 Electron/28.1.0 Safari/537.36" etag="DULUYLgM8gKnkkR0iom0" version="24.2.5" type="device">
  <diagram name="PÃ¡gina-1" id="cyNjb740hBXm_-Td02OY">
    <mxGraphModel dx="954" dy="664" grid="1" gridSize="10" guides="1" tooltips="1" connect="1" arrows="1" fold="1" page="1" pageScale="1" pageWidth="827" pageHeight="1169" math="0" shadow="0">
      <root>
        <mxCell id="0" />
        <mxCell id="1" parent="0" />
        <mxCell id="2" value="Frontend Web Application" style="shape=cloud;fillColor=#f0a30a;fontColor=#000000;strokeColor=#BD7000;" vertex="1" parent="1">
          <mxGeometry x="50" y="140" width="190" height="100" as="geometry" />
        </mxCell>
        <mxCell id="3" value="API Gateway + AWS Lambda&#xa;(Backend API)" style="shape=cloud;fillColor=#f0a30a;fontColor=#000000;strokeColor=#BD7000;" vertex="1" parent="1">
          <mxGeometry x="50" y="280" width="220" height="120" as="geometry" />
        </mxCell>
        <mxCell id="4" value="Amazon DynamoDB&#xa;(NoSQL Database)" style="shape=cloud;fillColor=#f0a30a;fontColor=#000000;strokeColor=#BD7000;" vertex="1" parent="1">
          <mxGeometry x="50" y="440" width="170" height="110" as="geometry" />
        </mxCell>
        <mxCell id="5" value="Amazon S3&#xa;(File Storage)" style="shape=cloud;fillColor=#f0a30a;fontColor=#000000;strokeColor=#BD7000;" vertex="1" parent="1">
          <mxGeometry x="280" y="50" width="170" height="100" as="geometry" />
        </mxCell>
        <mxCell id="6" value="Amazon RDS&#xa;(Relational Database)" style="shape=cloud;fillColor=#f0a30a;fontColor=#000000;strokeColor=#BD7000;" vertex="1" parent="1">
          <mxGeometry x="414" y="250" width="180" height="120" as="geometry" />
        </mxCell>
        <mxCell id="7" value="Amazon Chime SDK&#xa;(Real-time Chat)" style="shape=cloud;fillColor=#f0a30a;fontColor=#000000;strokeColor=#BD7000;" vertex="1" parent="1">
          <mxGeometry x="320" y="445" width="170" height="100" as="geometry" />
        </mxCell>
        <mxCell id="8" value="Amazon SES&#xa;(Email Notifications)" style="shape=cloud;fillColor=#f0a30a;fontColor=#000000;strokeColor=#BD7000;" vertex="1" parent="1">
          <mxGeometry x="550" y="50" width="170" height="100" as="geometry" />
        </mxCell>
        <mxCell id="9" value="AWS Amplify or AppSync&#xa;(Admin Panel)" style="shape=cloud;fillColor=#f0a30a;fontColor=#000000;strokeColor=#BD7000;" vertex="1" parent="1">
          <mxGeometry x="620" y="200" width="170" height="110" as="geometry" />
        </mxCell>
        <mxCell id="10" value="AWS CodePipeline + CodeBuild&#xa;(CI/CD Pipeline)" style="shape=cloud;fillColor=#f0a30a;fontColor=#000000;strokeColor=#BD7000;" vertex="1" parent="1">
          <mxGeometry x="560" y="420" width="230" height="120" as="geometry" />
        </mxCell>
        <mxCell id="11" value="" style="edgeStyle=orthogonalEdgeStyle;endArrow=none;strokeWidth=2;" edge="1" parent="1" source="2" target="3">
          <mxGeometry relative="1" as="geometry" />
        </mxCell>
        <mxCell id="12" value="" style="edgeStyle=orthogonalEdgeStyle;endArrow=none;strokeWidth=2;" edge="1" parent="1" source="3" target="4">
          <mxGeometry relative="1" as="geometry" />
        </mxCell>
        <mxCell id="13" value="" style="edgeStyle=orthogonalEdgeStyle;endArrow=none;strokeWidth=2;" edge="1" parent="1" source="3" target="5">
          <mxGeometry relative="1" as="geometry" />
        </mxCell>
        <mxCell id="14" value="" style="edgeStyle=orthogonalEdgeStyle;endArrow=none;strokeWidth=2;" edge="1" parent="1" source="5" target="6">
          <mxGeometry relative="1" as="geometry" />
        </mxCell>
        <mxCell id="15" value="" style="edgeStyle=orthogonalEdgeStyle;endArrow=none;strokeWidth=2;" edge="1" parent="1" source="5" target="7">
          <mxGeometry relative="1" as="geometry" />
        </mxCell>
        <mxCell id="16" value="" style="edgeStyle=orthogonalEdgeStyle;endArrow=none;strokeWidth=2;" edge="1" parent="1" source="5" target="8">
          <mxGeometry relative="1" as="geometry" />
        </mxCell>
        <mxCell id="17" value="" style="edgeStyle=orthogonalEdgeStyle;endArrow=none;strokeWidth=2;" edge="1" parent="1" source="6" target="9">
          <mxGeometry relative="1" as="geometry" />
        </mxCell>
        <mxCell id="18" value="" style="edgeStyle=orthogonalEdgeStyle;endArrow=none;strokeWidth=2;" edge="1" parent="1" source="6" target="10">
          <mxGeometry relative="1" as="geometry" />
        </mxCell>
      </root>
    </mxGraphModel>
  </diagram>
</mxfile>
